<?xml version="1.0" ?><svg id="Filled" viewBox="0 0 64 64" xmlns="http://www.w3.org/2000/svg" width="55" height="55"><title/><path d="M30,53V47.008L18,47v6L6.545,55.864A6,6,0,0,0,2,61.685V63H46V61.685a6,6,0,0,0-4.545-5.821Z" style="fill:#fabea3;stroke:#000;stroke-linecap:round;stroke-linejoin:round;stroke-width:2px"/><path d="M13,29V40A11,11,0,0,0,24,51h0A11,11,0,0,0,35,40V29a8,8,0,0,0-8-8H21A8,8,0,0,0,13,29Z" style="fill:#ffc8b3;stroke:#000;stroke-linecap:round;stroke-linejoin:round;stroke-width:2px"/><path d="M35,33h1a3,3,0,0,1,3,3v0a3,3,0,0,1-3,3H35a0,0,0,0,1,0,0V33A0,0,0,0,1,35,33Z" style="fill:#fabea3;stroke:#000;stroke-linecap:round;stroke-linejoin:round;stroke-width:2px"/><path d="M9,33h1a3,3,0,0,1,3,3v0a3,3,0,0,1-3,3H9a0,0,0,0,1,0,0V33A0,0,0,0,1,9,33Z" style="fill:#fabea3;stroke:#000;stroke-linecap:round;stroke-linejoin:round;stroke-width:2px" transform="translate(22 72) rotate(180)"/><path d="M35,31h0a12.812,12.812,0,0,1-9.841-4.609L24,25l1.561,4.684A1,1,0,0,1,24.613,31h0a6.4,6.4,0,0,1-6.072-4.376L18,25v1a5,5,0,0,1-5,5h0V25a6,6,0,0,1,6-6H29a6,6,0,0,1,6,6Z" style="fill:#574943;stroke:#000;stroke-linecap:round;stroke-linejoin:round;stroke-width:2px"/><circle cx="30" cy="35" r="1"/><circle cx="18" cy="35" r="1"/><line style="fill:none;stroke:#000;stroke-linecap:round;stroke-linejoin:round;stroke-width:2px" x1="22" x2="26" y1="45" y2="45"/><rect height="5" style="fill:#888;stroke:#000;stroke-linecap:round;stroke-linejoin:round;stroke-width:2px" transform="translate(21.427 -38.78) rotate(45)" width="6" x="54.525" y="3.975"/><path d="M47.343,7.657h14a4,4,0,0,1,4,4v0a0,0,0,0,1,0,0h-22a0,0,0,0,1,0,0v0a4,4,0,0,1,4-4Z" style="fill:#a3a3a3;stroke:#000;stroke-linecap:round;stroke-linejoin:round;stroke-width:2px" transform="translate(22.745 -35.598) rotate(45)"/><rect height="4" rx="2" style="fill:#888;stroke:#000;stroke-linecap:round;stroke-linejoin:round;stroke-width:2px" transform="translate(23.917 -32.77) rotate(45)" width="28" x="37.515" y="10.485"/><line style="fill:none;stroke:#000;stroke-linecap:round;stroke-linejoin:round;stroke-width:2px" x1="47.272" x2="45.858" y1="16.728" y2="18.142"/><line style="fill:none;stroke:#000;stroke-linecap:round;stroke-linejoin:round;stroke-width:2px" x1="50.808" x2="49.393" y1="20.263" y2="21.678"/><line style="fill:none;stroke:#000;stroke-linecap:round;stroke-linejoin:round;stroke-width:2px" x1="54.343" x2="52.929" y1="23.799" y2="25.213"/><line style="fill:none;stroke:#000;stroke-linecap:round;stroke-linejoin:round;stroke-width:2px" x1="40.201" x2="38.787" y1="9.657" y2="11.071"/><line style="fill:none;stroke:#000;stroke-linecap:round;stroke-linejoin:round;stroke-width:2px" x1="43.737" x2="42.322" y1="13.192" y2="14.607"/><line style="fill:none;stroke:#000;stroke-linecap:round;stroke-linejoin:round;stroke-width:2px" x1="44.797" x2="43.383" y1="22.738" y2="24.153"/><line style="fill:none;stroke:#000;stroke-linecap:round;stroke-linejoin:round;stroke-width:2px" x1="48.333" x2="46.919" y1="26.274" y2="27.688"/><line style="fill:none;stroke:#000;stroke-linecap:round;stroke-linejoin:round;stroke-width:2px" x1="51.868" x2="50.454" y1="29.809" y2="31.224"/><line style="fill:none;stroke:#000;stroke-linecap:round;stroke-linejoin:round;stroke-width:2px" x1="37.726" x2="36.312" y1="15.667" y2="17.081"/><line style="fill:none;stroke:#000;stroke-linecap:round;stroke-linejoin:round;stroke-width:2px" x1="34.191" x2="32.776" y1="12.132" y2="13.546"/><line style="fill:none;stroke:#000;stroke-linecap:round;stroke-linejoin:round;stroke-width:2px" x1="41.262" x2="39.847" y1="19.203" y2="20.617"/></svg>
